<svg width="34" height="34" viewBox="0 0 34 34" fill="none" xmlns="http://www.w3.org/2000/svg">
<path d="M28.3337 17V31.1667H5.66699V17" stroke="#262626" stroke-width="1.5" stroke-linecap="round" stroke-linejoin="round"/>
<path d="M31.1663 9.91663H2.83301V17H31.1663V9.91663Z" stroke="#262626" stroke-width="1.5" stroke-linecap="round" stroke-linejoin="round"/>
<path d="M17 31.1666V9.91663" stroke="#262626" stroke-width="1.5" stroke-linecap="round" stroke-linejoin="round"/>
<path d="M16.9997 9.91671H10.6247C9.68537 9.91671 8.78453 9.54357 8.12034 8.87938C7.45615 8.21519 7.08301 7.31435 7.08301 6.37504C7.08301 5.43573 7.45615 4.5349 8.12034 3.8707C8.78453 3.20651 9.68537 2.83337 10.6247 2.83337C15.583 2.83337 16.9997 9.91671 16.9997 9.91671Z" stroke="#262626" stroke-width="1.5" stroke-linecap="round" stroke-linejoin="round"/>
<path d="M17 9.91671H23.375C24.3143 9.91671 25.2151 9.54357 25.8793 8.87938C26.5435 8.21519 26.9167 7.31435 26.9167 6.37504C26.9167 5.43573 26.5435 4.5349 25.8793 3.8707C25.2151 3.20651 24.3143 2.83337 23.375 2.83337C18.4167 2.83337 17 9.91671 17 9.91671Z" stroke="#262626" stroke-width="1.5" stroke-linecap="round" stroke-linejoin="round"/>
</svg>
