<svg width="34" height="34" viewBox="0 0 34 34" fill="none" xmlns="http://www.w3.org/2000/svg">
<path d="M22.667 4.25H1.41699V22.6667H22.667V4.25Z" stroke="#262626" stroke-width="1.5" stroke-linecap="round" stroke-linejoin="round"/>
<path d="M22.667 11.3334H28.3337L32.5837 15.5834V22.6667H22.667V11.3334Z" stroke="#262626" stroke-width="1.5" stroke-linecap="round" stroke-linejoin="round"/>
<path d="M7.79167 29.75C9.74768 29.75 11.3333 28.1643 11.3333 26.2083C11.3333 24.2523 9.74768 22.6666 7.79167 22.6666C5.83566 22.6666 4.25 24.2523 4.25 26.2083C4.25 28.1643 5.83566 29.75 7.79167 29.75Z" stroke="#262626" stroke-width="1.5" stroke-linecap="round" stroke-linejoin="round"/>
<path d="M26.2087 29.75C28.1647 29.75 29.7503 28.1643 29.7503 26.2083C29.7503 24.2523 28.1647 22.6666 26.2087 22.6666C24.2527 22.6666 22.667 24.2523 22.667 26.2083C22.667 28.1643 24.2527 29.75 26.2087 29.75Z" stroke="#262626" stroke-width="1.5" stroke-linecap="round" stroke-linejoin="round"/>
</svg>
