<svg width="137" height="105" viewBox="0 0 137 105" fill="none" xmlns="http://www.w3.org/2000/svg">
<g clip-path="url(#clip0_10_3259)">
<path d="M52.9004 41.25C57.4567 41.25 61.1504 37.5563 61.1504 33C61.1504 28.4437 57.4567 24.75 52.9004 24.75C48.344 24.75 44.6504 28.4437 44.6504 33C44.6504 37.5563 48.344 41.25 52.9004 41.25Z" stroke="#737373" stroke-width="1.5"/>
<path d="M42.9004 61.25C47.4567 61.25 51.1504 57.5563 51.1504 53C51.1504 48.4437 47.4567 44.75 42.9004 44.75C38.344 44.75 34.6504 48.4437 34.6504 53C34.6504 57.5563 38.344 61.25 42.9004 61.25Z" stroke="#737373" stroke-width="1.5"/>
<path d="M56.9004 40L78.9004 80" stroke="#737373" stroke-width="1.5"/>
<path d="M51.4004 53H64.4004M64.4004 53H101.4C99.5671 50.3333 96.2004 45 83.4004 45C70.6004 45 65.7337 50.3333 64.4004 53ZM64.4004 53C64.4004 53 58.9004 68.5 70.9004 80" stroke="#737373" stroke-width="1.5"/>
<path d="M51.6504 80.25H59.1504" stroke="#737373" stroke-width="1.5" stroke-linecap="round"/>
<path d="M64.6504 80.25H72.1504" stroke="#737373" stroke-width="1.5" stroke-linecap="round"/>
<path d="M77.6504 80.25H85.1504" stroke="#737373" stroke-width="1.5" stroke-linecap="round"/>
<path d="M90.6504 80.25H98.1504" stroke="#737373" stroke-width="1.5" stroke-linecap="round"/>
</g>
<defs>
<clipPath id="clip0_10_3259">
<rect width="69" height="57" fill="white" transform="translate(33.9004 24)"/>
</clipPath>
</defs>
</svg>
