<svg width="137" height="108" viewBox="0 0 137 108" fill="none" xmlns="http://www.w3.org/2000/svg">
<g clip-path="url(#clip0_10_3268)">
<path d="M58.0996 83H63.2077C64.1308 83 64.9967 82.5549 65.5336 81.8042L82.0642 58.6933H86.3506H97.0275C99.6123 58.6933 103.982 56.5787 103.982 53.9939C103.982 51.513 99.6972 49.4833 97.2163 49.4833H82.1906L65.5336 26.195C64.9967 25.4451 64.1308 25 63.2077 25H58.0996L66.0393 48.0935C66.2731 48.775 65.7674 49.4833 65.0478 49.4833H44.9435C44.6171 49.4833 44.3001 49.3664 44.0516 49.1543L35.5689 41.9099C35.4373 41.7973 35.2546 41.7635 35.0918 41.8216L32.7252 42.6563C32.4343 42.7594 32.3113 43.104 32.4707 43.3681L36.7934 50.4999L38.9106 53.9939V54.0052L32.4707 64.6319C32.3113 64.8951 32.4343 65.2398 32.7252 65.3428L35.0918 66.1776C35.2546 66.2356 35.4373 66.2018 35.5689 66.0892L43.8438 59.0224C44.0923 58.8102 44.4084 58.6933 44.7357 58.6933H62.6682H64.9872C65.7068 58.6933 66.2125 59.4025 65.9787 60.0832L60.0133 77.4338" stroke="#737373" stroke-width="1.5" stroke-linecap="round" stroke-linejoin="round"/>
</g>
<defs>
<clipPath id="clip0_10_3268">
<rect width="74" height="60" fill="white" transform="translate(31.4004 24)"/>
</clipPath>
</defs>
</svg>
