<svg width="137" height="106" viewBox="0 0 137 106" fill="none" xmlns="http://www.w3.org/2000/svg">
<g clip-path="url(#clip0_10_3256)">
<path d="M62.4004 51.25C64.7476 51.25 66.6504 49.3472 66.6504 47C66.6504 44.6528 64.7476 42.75 62.4004 42.75C60.0532 42.75 58.1504 44.6528 58.1504 47C58.1504 49.3472 60.0532 51.25 62.4004 51.25Z" stroke="#737373" stroke-width="1.5"/>
<path d="M74.4004 51.25C76.7476 51.25 78.6504 49.3472 78.6504 47C78.6504 44.6528 76.7476 42.75 74.4004 42.75C72.0532 42.75 70.1504 44.6528 70.1504 47C70.1504 49.3472 72.0532 51.25 74.4004 51.25Z" stroke="#737373" stroke-width="1.5"/>
<path d="M74.4004 63.25C76.7476 63.25 78.6504 61.3472 78.6504 59C78.6504 56.6528 76.7476 54.75 74.4004 54.75C72.0532 54.75 70.1504 56.6528 70.1504 59C70.1504 61.3472 72.0532 63.25 74.4004 63.25Z" stroke="#737373" stroke-width="1.5"/>
<path d="M62.4004 63.25C64.7476 63.25 66.6504 61.3472 66.6504 59C66.6504 56.6528 64.7476 54.75 62.4004 54.75C60.0532 54.75 58.1504 56.6528 58.1504 59C58.1504 61.3472 60.0532 63.25 62.4004 63.25Z" stroke="#737373" stroke-width="1.5"/>
<path d="M68.4004 81C52.9364 81 40.4004 68.464 40.4004 53C40.4004 37.536 52.9364 25 68.4004 25C83.8644 25 96.4004 37.536 96.4004 53C96.4004 65.6841 87.9664 76.3983 76.4004 79.8405" stroke="#737373" stroke-width="1.5" stroke-linecap="round"/>
</g>
<defs>
<clipPath id="clip0_10_3256">
<rect width="58" height="58" fill="white" transform="translate(39.4004 24)"/>
</clipPath>
</defs>
</svg>
