<svg width="137" height="107" viewBox="0 0 137 107" fill="none" xmlns="http://www.w3.org/2000/svg">
<g clip-path="url(#clip0_10_3262)">
<path fill-rule="evenodd" clip-rule="evenodd" d="M90.4004 54.7393V82L83.882 78.069L78.7119 82L73.5418 78.069L68.3727 82L63.2027 78.069L58.0336 82L52.8635 78.069L46.4004 82V54.7393V25L52.8635 28.931L58.0336 25L63.2027 28.931L68.4341 25.0265L73.5418 28.931L78.7119 25L83.882 28.931L90.4004 25V54.7393Z" stroke="#737373" stroke-width="1.5" stroke-linecap="round" stroke-linejoin="round"/>
<path d="M68.8994 54C66.4144 54 64.4004 51.985 64.4004 49.5C64.4004 47.015 66.4144 45 68.8994 45H73.4004" stroke="#737373" stroke-width="1.5" stroke-linecap="round" stroke-linejoin="round"/>
<path d="M68.8994 54C71.3844 54 73.4004 56.015 73.4004 58.5C73.4004 60.985 71.3844 63 68.8994 63H64.4004" stroke="#737373" stroke-width="1.5" stroke-linecap="round" stroke-linejoin="round"/>
<path d="M68.4014 42L68.4004 45" stroke="#737373" stroke-width="1.5" stroke-linecap="round" stroke-linejoin="round"/>
<path d="M68.4004 63L68.4014 66" stroke="#737373" stroke-width="1.5" stroke-linecap="round" stroke-linejoin="round"/>
</g>
<defs>
<clipPath id="clip0_10_3262">
<rect width="46" height="59" fill="white" transform="translate(45.4004 24)"/>
</clipPath>
</defs>
</svg>
